<?xml version="1.0" encoding="UTF-8"?>
<svg id="_圖層_2" data-name="圖層 2" xmlns="http://www.w3.org/2000/svg" xmlns:xlink="http://www.w3.org/1999/xlink" viewBox="0 0 13.93 13.93">
  <defs>
    <clipPath id="clippath">
      <rect width="13.93" height="13.93" style="fill: none;"/>
    </clipPath>
  </defs>
  <g id="_圖層_1-2" data-name="圖層 1">
    <g style="clip-path: url(#clippath);">
      <g>
        <path d="M6.91,11.74c-1.16,0-2.32,0-3.49,0-.85,0-1.27-.32-1.15-1.14,.18-1.27,.49-2.54,.9-3.75,.13-.39,.73-.64,1.14-.91,.51-.34,.87-.7,.78-1.4-.03-.23,.22-.5,.35-.75,.18,.14,.38,.25,.52,.41,.33,.36,1.67,.32,1.98-.06,.12-.15,.35-.36,.47-.32,.16,.04,.39,.32,.36,.46-.23,1.18,.7,1.53,1.39,2.09,.33,.28,.65,.68,.77,1.09,.3,1,.58,2.02,.69,3.05,.1,.93-.3,1.23-1.23,1.24-1.16,0-2.32,0-3.49,0Zm0-5.66c-1.13,0-2.1,.99-2.1,2.13,0,1.13,.98,2.13,2.11,2.13,1.18,0,2.2-.99,2.19-2.14,0-1.16-1.01-2.14-2.2-2.13Z" style="fill: #323e48;"/>
        <path d="M2.16,6.54c-1.21-.98-1.15-2.69,.17-3.43,.85-.47,1.84-.75,2.81-.89,1.96-.29,3.92-.2,5.81,.53,1.14,.45,1.78,1.4,1.62,2.59-.05,.38-.37,.78-.67,1.06-.1,.09-.57-.17-.82-.33-.72-.48-1.56-.86-1.39-2.02,.03-.21-.52-.71-.82-.73-1.3-.08-2.6-.08-3.9,0-.3,.02-.83,.55-.8,.77,.17,1.07-.56,1.45-1.24,1.92-.25,.17-.49,.35-.77,.54Z" style="fill: #323e48;"/>
        <path d="M6.9,6.08c1.19,0,2.19,.96,2.2,2.13,0,1.16-1.01,2.15-2.19,2.14-1.13,0-2.11-1.01-2.11-2.13,0-1.15,.97-2.13,2.1-2.13Zm1.7,2.11c-.01-.9-.74-1.61-1.66-1.61-.9,0-1.64,.72-1.65,1.62-.01,.91,.79,1.71,1.7,1.68,.89-.03,1.62-.8,1.61-1.68Z" style="fill: #fff;"/>
        <path d="M8.6,8.19c.01,.88-.72,1.65-1.61,1.68-.91,.03-1.71-.77-1.7-1.68,.01-.9,.75-1.62,1.65-1.62,.91,0,1.64,.72,1.66,1.61Z" style="fill: #323e48;"/>
      </g>
    </g>
  </g>
</svg>