<?xml version="1.0" encoding="UTF-8"?>
<svg id="_圖層_2" data-name="圖層 2" xmlns="http://www.w3.org/2000/svg" xmlns:xlink="http://www.w3.org/1999/xlink" viewBox="0 0 13.93 13.93">
  <defs>
    <clipPath id="clippath">
      <rect width="13.93" height="13.93" style="fill: none;"/>
    </clipPath>
  </defs>
  <g id="_圖層_1-2" data-name="圖層 1">
    <g style="clip-path: url(#clippath);">
      <g>
        <path d="M6.76,12.93c-.73-1.32-1.47-2.59-2.15-3.9-.57-1.1-1.23-2.2-1.57-3.38-.47-1.63,.32-3.24,1.77-4.14,1.41-.87,3.25-.78,4.53,.24,1.31,1.04,2.02,2.85,1.33,4.32-1.08,2.3-2.41,4.49-3.63,6.72-.02,.04-.09,.05-.26,.13Zm.14-9.54c-.79,0-1.51,.69-1.54,1.5-.03,.78,.72,1.55,1.49,1.54,.8-.01,1.53-.72,1.55-1.5,.01-.79-.71-1.53-1.5-1.54Z" style="fill: #323e48;"/>
        <path d="M6.9,3.39c.79,0,1.51,.75,1.5,1.54-.01,.77-.75,1.49-1.55,1.5-.77,.01-1.51-.76-1.49-1.54,.03-.81,.75-1.51,1.54-1.5Z" style="fill: #fff;"/>
      </g>
    </g>
  </g>
</svg>