<?xml version="1.0" encoding="UTF-8"?>
<svg id="_圖層_2" data-name="圖層 2" xmlns="http://www.w3.org/2000/svg" xmlns:xlink="http://www.w3.org/1999/xlink" viewBox="0 0 13.93 13.93">
  <defs>
    <clipPath id="clippath">
      <rect width="13.93" height="13.93" style="fill: none;"/>
    </clipPath>
  </defs>
  <g id="_圖層_1-2" data-name="圖層 1">
    <g style="clip-path: url(#clippath);">
      <g>
        <path d="M2.13,5.52c1.27,.89,2.38,1.66,3.5,2.44,1.05,.73,1.59,.73,2.63,0,1.11-.78,2.23-1.56,3.5-2.44,0,1.16,0,2.18,0,3.2,0,1.9-.03,1.92-1.91,1.92-2.14,0-4.27,0-6.41,0-1.05,0-1.31-.26-1.31-1.33,0-1.21,0-2.42,0-3.8Z" style="fill: #323e48;"/>
        <path d="M6.97,3.05c1.22,0,2.43,0,3.65,0,1.05,.01,1.47,.77,.9,1.66-.17,.26-.41,.51-.66,.69-1.01,.72-2.04,1.41-3.05,2.13-.58,.41-1.13,.43-1.71,.01-1.01-.72-2.04-1.4-3.05-2.13-.29-.21-.56-.5-.75-.81-.46-.78-.04-1.53,.87-1.54,1.26-.02,2.53,0,3.8,0Z" style="fill: #323e48;"/>
      </g>
    </g>
  </g>
</svg>