<?xml version="1.0" encoding="UTF-8"?>
<svg id="_圖層_2" data-name="圖層 2" xmlns="http://www.w3.org/2000/svg" xmlns:xlink="http://www.w3.org/1999/xlink" viewBox="0 0 13.93 13.93">
  <defs>
    <clipPath id="clippath">
      <rect width="13.93" height="13.93" style="fill: none;"/>
    </clipPath>
  </defs>
  <g id="_圖層_1-2" data-name="圖層 1">
    <g style="clip-path: url(#clippath);">
      <g>
        <path d="M10.7,6.57h0c0-.07,0-.14,0-.2,0-1.52,0-3.05,0-4.57,0-.88-.51-1.39-1.38-1.39-1.56,0-3.13,.03-4.69-.01-.88-.02-1.43,.64-1.43,1.42,0,1.52,0,3.04,0,4.56h0c0,1.95,0,3.9,0,5.84,0,.79,.52,1.32,1.31,1.32,1.62,0,3.24,0,4.86,0,.23,0,.48-.06,.68-.17,.47-.24,.65-.67,.65-1.19,0-1.87,0-3.73,0-5.6Zm-1.27,4.95c-1.67,0-3.35,0-5.02,0-.4,0-.54-.15-.54-.58,0-1.54,0-3.08,0-4.63h0v-.19c0-1.18,0-2.36,0-3.54,0-.47,.15-.62,.6-.62,1.65,0,3.31,0,4.96,0,.47,0,.6,.14,.6,.64,0,1.17,0,2.34,0,3.51h0c0,1.58,0,3.17,0,4.75,0,.49-.14,.64-.6,.64Z" style="fill: #323e48;"/>
        <rect x="6.15" y="1" width="1.27" height=".2" rx=".1" ry=".1" style="fill: #f5f5f5;"/>
        <g>
          <rect x="6.19" y="12.15" width="1.48" height=".69" rx=".35" ry=".35" style="fill: #fff;"/>
          <rect x="6.3" y="12.23" width="1.25" height=".53" rx=".26" ry=".26" style="fill: #323e48;"/>
        </g>
      </g>
    </g>
  </g>
</svg>