<?xml version="1.0" encoding="UTF-8"?>
<svg id="_圖層_2" data-name="圖層 2" xmlns="http://www.w3.org/2000/svg" viewBox="0 0 27.81 27.81">
  <g id="_圖層_1-2" data-name="圖層 1">
    <g>
      <path d="M27.81,13.96c0,2.54,0,5.08,0,7.62,0,1.01-.25,1.95-.7,2.84-.3,.59-.69,1.12-1.16,1.58-.65,.63-1.39,1.11-2.24,1.42-.67,.24-1.35,.38-2.07,.38-5.17,0-10.33,0-15.5,0-.86,0-1.67-.2-2.45-.55-.67-.3-1.27-.71-1.8-1.22-.52-.51-.95-1.1-1.27-1.76-.27-.57-.45-1.16-.55-1.78-.05-.31-.07-.62-.07-.94C0,16.43,0,11.31,0,6.19c0-1.38,.45-2.63,1.28-3.73,.59-.78,1.33-1.39,2.2-1.82,.57-.28,1.18-.47,1.81-.58,.27-.05,.54-.06,.82-.06,5.2,0,10.4,0,15.59,0,.86,0,1.68,.22,2.47,.57,.64,.29,1.2,.68,1.7,1.16,.44,.41,.81,.89,1.11,1.42,.24,.44,.46,.89,.59,1.38,.13,.49,.23,.99,.23,1.5,0,2.64,0,5.28,0,7.93h0ZM13.94,5.07c-.32,.02-.64,.03-.96,.06-.34,.03-.69,.05-1.02,.11-1.07,.19-2.09,.52-3.06,1.03-.72,.38-1.38,.83-1.97,1.38-.76,.7-1.36,1.53-1.78,2.48-.25,.58-.43,1.18-.48,1.81-.06,.76-.04,1.53,.17,2.28,.29,1.03,.79,1.93,1.49,2.74,.33,.38,.69,.73,1.09,1.03,.42,.31,.84,.6,1.29,.86,.46,.27,.96,.49,1.48,.66,.51,.17,1.03,.32,1.56,.41,.31,.06,.62,.11,.92,.19,.15,.04,.29,.12,.41,.22,.17,.12,.18,.33,.18,.51,0,.22-.04,.45-.07,.67-.04,.29-.1,.57-.11,.86-.02,.28,.11,.39,.39,.36,.05,0,.09-.01,.14-.03,.24-.1,.5-.19,.73-.32,.51-.29,1.02-.58,1.51-.9,.62-.4,1.24-.82,1.85-1.25,.56-.41,1.11-.84,1.65-1.28,.31-.24,.6-.5,.88-.77,.48-.46,.95-.93,1.37-1.45,.53-.65,.95-1.36,1.23-2.15,.26-.73,.35-1.49,.32-2.26-.02-.58-.12-1.14-.3-1.68-.21-.65-.53-1.25-.93-1.81-.46-.64-1.01-1.19-1.63-1.68-.36-.28-.75-.51-1.14-.74-.89-.53-1.86-.86-2.86-1.08-.77-.17-1.56-.26-2.35-.26Z" style="fill: #323e48;"/>
      <path d="M13.95,5.07c-.32,.02-.64,.03-.96,.06-.34,.03-.69,.05-1.02,.11-1.07,.19-2.09,.52-3.06,1.03-.72,.38-1.38,.83-1.97,1.38-.76,.7-1.36,1.53-1.78,2.48-.25,.58-.43,1.18-.48,1.81-.06,.76-.04,1.53,.17,2.28,.29,1.03,.79,1.93,1.49,2.74,.33,.38,.69,.73,1.09,1.03,.42,.31,.84,.6,1.29,.86,.46,.27,.96,.49,1.48,.66,.51,.17,1.03,.32,1.56,.41,.31,.06,.62,.11,.92,.19,.15,.04,.29,.12,.41,.22,.17,.12,.18,.33,.18,.51,0,.22-.04,.45-.07,.67-.04,.29-.1,.57-.11,.86-.02,.28,.11,.39,.39,.36,.05,0,.09-.01,.14-.03,.24-.1,.5-.19,.73-.32,.51-.29,1.02-.58,1.51-.9,.62-.4,1.24-.82,1.85-1.25,.56-.41,1.11-.84,1.65-1.28,.31-.24,.6-.5,.88-.77,.48-.46,.95-.93,1.37-1.45,.53-.65,.95-1.36,1.23-2.15,.26-.73,.35-1.49,.32-2.26-.02-.58-.12-1.14-.3-1.68-.21-.65-.53-1.25-.93-1.81-.46-.64-1.01-1.19-1.63-1.68-.36-.28-.75-.51-1.14-.74-.89-.53-1.86-.86-2.86-1.08-.77-.17-1.56-.26-2.35-.26Z" style="fill: #f5f5f5;"/>
      <path d="M15.67,13.09v-2.4c.17-.11,.58-.14,.93-.07,.09,.07,.1,.17,.1,.28,0,1.26,0,2.52,0,3.78,0,.27-.07,.33-.34,.33-.13,0-.25,0-.38,0-.17,.02-.28-.06-.38-.19-.14-.2-.28-.39-.43-.59-.41-.55-.82-1.1-1.23-1.66-.02-.03-.05-.05-.11-.11v.27c0,.65,0,1.3,0,1.95,0,.27-.05,.31-.32,.32-.13,0-.27,0-.4,0-.23,0-.28-.05-.28-.27,0-.03,0-.06,0-.09,0-1.25,0-2.49,0-3.74,0-.09,.01-.18,.02-.27,.16-.08,.32-.03,.46-.05,.31-.04,.51,.06,.69,.33,.43,.65,.92,1.27,1.38,1.89,.07,.09,.15,.18,.22,.27,.02,0,.03,0,.05,0Z" style="fill: #323e48;"/>
      <path d="M20.27,13.2c-.13,.11-.25,.11-.38,.11-.43,0-.86,0-1.29,0h-.27v.65c.09,0,.17,.01,.26,.01,.46,0,.92,0,1.39,0,.26,0,.3,.04,.31,.3,0,.15,0,.3,0,.45,0,.21-.07,.28-.28,.29-.33,0-.66,0-.99,0-.44,0-.88,0-1.32,0-.07,0-.14,0-.21-.02-.1-.02-.17-.09-.17-.2,0-.04,0-.08,0-.12,0-1.26,0-2.52,0-3.79,0-.08,.01-.17,.02-.27,.08-.01,.15-.03,.22-.03,.82,0,1.63,0,2.45,0,.23,0,.28,.05,.28,.28,0,.22,0,.44,0,.62-.11,.13-.22,.13-.33,.13-.43,0-.86,0-1.29,0h-.27c-.12,.21-.09,.42-.03,.65,.09,0,.18,.01,.26,.01,.45,0,.91,0,1.36,0,.25,0,.29,.05,.29,.28,0,.22,0,.43,0,.63Z" style="fill: #323e48;"/>
      <path d="M8.57,10.59c.14,.12,.13,.25,.13,.38,0,.91,0,1.82,0,2.72v.28h1.85c.03,.07,.08,.12,.08,.16,0,.23,0,.45,0,.68,0,.1-.07,.15-.16,.18-.06,.01-.12,.01-.19,.01-.77,0-1.53,0-2.3,0-.27,0-.31-.04-.31-.31,0-1.24,0-2.47,0-3.71,0-.06,0-.13,0-.19,.01-.14,.07-.2,.21-.2,.23,0,.47,0,.69,0Z" style="fill: #323e48;"/>
      <path d="M11.29,10.61h.87c.01,.1,.03,.18,.03,.26,0,1.28,0,2.55,0,3.83,0,.27-.04,.31-.32,.31-.15,0-.3,0-.45,0-.17,0-.22-.07-.23-.23,0-.03,0-.06,0-.09,0-1.25,0-2.51,0-3.76,0-.11-.02-.22,.09-.31Z" style="fill: #323e48;"/>
    </g>
  </g>
</svg>