<?xml version="1.0" encoding="UTF-8"?>
<svg id="_圖層_2" data-name="圖層 2" xmlns="http://www.w3.org/2000/svg" viewBox="0 0 71.15 37.58">
  <g id="_圖層_1-2" data-name="圖層 1">
    <g>
      <g>
        <path d="M70.96,2.69c-1.77-1.77-4.08-2.67-6.4-2.69-2.32,.02-4.63,.92-6.4,2.69-.26,.26-.26,.67,0,.93s.67,.26,.93,0c1.51-1.51,3.49-2.28,5.47-2.31,1.98,.02,3.96,.79,5.47,2.31,.26,.26,.67,.26,.93,0,.26-.26,.26-.67,0-.93Z" style="fill: #76c1e6; opacity: .8;"/>
        <path d="M69.2,4.72c-1.28-1.28-2.97-1.91-4.65-1.88-1.68-.03-3.37,.6-4.65,1.88-.25,.25-.25,.66,0,.91,.25,.25,.66,.25,.91,0h0c1.03-1.03,2.39-1.53,3.74-1.5,1.35-.03,2.71,.47,3.74,1.5h0c.25,.25,.66,.25,.91,0,.25-.25,.25-.66,0-.91Z" style="fill: #76c1e6; opacity: .8;"/>
        <path d="M67.18,6.55c-.73-.73-1.68-1.1-2.63-1.12-.95,.02-1.9,.4-2.63,1.12-.25,.25-.25,.66,0,.91,.25,.25,.66,.25,.91,0,.48-.48,1.1-.73,1.72-.75,.63,.02,1.24,.27,1.72,.75,.25,.25,.66,.25,.91,0s.25-.66,0-.91Z" style="fill: #76c1e6; opacity: .8;"/>
        <path d="M65.85,9.38c0,.72-.58,1.3-1.3,1.3s-1.3-.58-1.3-1.3,.58-1.3,1.3-1.3,1.3,.58,1.3,1.3Z" style="fill: #76c1e6;"/>
      </g>
      <path d="M68.49,20.01c-.11-1.47-.33-2.52-.56-3.5-.12-.52-.9-3.77-3.21-3.72-1.58,.03-2.46,1.48-2.64,1.79-.92,1.61-1.11,3.55-1.26,5.71-1.01-.34-2.12-.31-3.08-.28-3.09,.1-5.45,1.52-6.73,2.48,.54-1.66,2.11-6.24,3.52-11.9,.15-.58,1.13-4.68,.77-6.7-.18-1.03-.97-2.74-2.69-3.37-.11-.04-2.02-.6-3.38,.13-1.24,.67-2.62,1.45-3.6,5.02C44.07,2.46,40.72,.19,36.1,.15c-3.86-.03-6.54,1.7-7.32,2.17-1.05,.63-1.89,1.45-2.57,2.35-.34-.46-.7-.88-1.1-1.26C22,.44,17.62-.03,14.13,.24c-2.43,.19-7.58,.69-11.02,5.93-.77,1.17-1.73,3.32-2.27,5.33-1.54,5.78-.76,10.85,.62,14.24,.37,.69,1.49,2.58,3.76,3.45,2.51,.97,5.95,.53,7.42-1.62,.83-1.22,.75-2.58,.67-3.9-.19-3.08-1.62-5.33-2.47-6.47,.68,.45,5.4,3.5,10.75,1.71,.31-.1,.88-.3,1.57-.62,.2,2.72,.95,5.69,2.88,7.9,3.5,4,9.08,3.5,10.25,3.42,1.22-.08,5.16-.36,7.87-3.21,.37,.56,.87,1.1,1.55,1.58,1.68,1.16,6.37,2.18,10.15,1.46,1.97-.38,4.15-1.03,5.68-2.04,.22,.58,.54,1.11,1.03,1.57,.19,.17,1.56,1,3.11,.54,1.38-.41,1.77-1.37,2.05-1.84,.62-1.06,1.02-4.28,.77-7.66ZM16.61,12.32c-1.48,.85-3.21,.62-3.87-.53-.66-1.15,0-2.77,1.48-3.62,1.48-.85,3.21-.62,3.87,.53s0,2.77-1.48,3.62Zm21.01,7.67c-.48,3.69-5.2,3.55-5.22,.01-.03-4.65,.18-7.67,.53-10.31,.47-3.53,4.96-3.56,4.92,.34-.06,6.12,.05,7.75-.24,9.96Z" style="fill: #76c1e6;"/>
      <g style="opacity: .9;">
        <path d="M18.95,3.19c1.97,.47,3.82,1.52,4.71,3.41,.39,.82,1.61,.11,1.22-.71-1.04-2.2-3.26-3.51-5.55-4.06-.88-.21-1.26,1.15-.38,1.36h0Z" style="fill: #f1f1f1; opacity: .9;"/>
        <path d="M50.59,3.41c.71,.63,1.03,1.52,1.19,2.44,.16,.89,1.53,.51,1.36-.38-.21-1.14-.68-2.28-1.56-3.06-.68-.6-1.68,.39-1,1h0Z" style="fill: #f1f1f1; opacity: .9;"/>
        <path d="M65.2,14.56c.07,.05,.13,.11,.19,.17,0,0,.04,.05,.05,.05-.05-.07-.07-.09-.04-.05,0,.01,.02,.03,.03,.04,.13,.17,.26,.33,.41,.48,.18,.18,.52,.2,.7,0,.18-.2,.2-.5,0-.7-.08-.08-.16-.16-.23-.25-.07-.09,0,0,0,0,0,0-.05-.07-.06-.08-.11-.14-.21-.27-.35-.38-.2-.16-.51-.21-.7,0-.17,.18-.21,.52,0,.7h0Z" style="fill: #f1f1f1; opacity: .9;"/>
        <path d="M37.94,3.19c2.47,.63,4.37,2.46,5.06,4.92,.25,.87,1.61,.5,1.36-.38-.82-2.92-3.11-5.16-6.05-5.91-.88-.23-1.26,1.14-.38,1.36h0Z" style="fill: #f1f1f1; opacity: .9;"/>
      </g>
      <g>
        <g>
          <path d="M33.58,35.53l-2.32-.21c-.02,.27,.01,.51,.1,.73,.09,.22,.21,.38,.38,.5,.17,.12,.36,.19,.57,.21,.14,.01,.27,0,.39-.02,.12-.02,.24-.06,.36-.13,.12-.06,.22-.13,.32-.2,.1-.07,.23-.17,.39-.3,.07-.05,.15-.07,.27-.06,.12,.01,.22,.05,.29,.13,.07,.07,.1,.17,.09,.29,0,.11-.06,.23-.16,.37-.1,.14-.24,.26-.42,.38-.18,.12-.4,.21-.67,.27-.26,.06-.56,.08-.9,.05-.76-.07-1.34-.34-1.72-.81-.39-.47-.54-1.08-.48-1.83,.03-.35,.11-.67,.24-.96,.13-.29,.31-.53,.53-.73,.22-.2,.48-.34,.78-.43,.3-.09,.63-.12,.99-.09,.46,.04,.85,.17,1.17,.4,.31,.22,.54,.5,.68,.82,.14,.32,.19,.65,.16,.97-.03,.3-.13,.48-.31,.56-.18,.07-.42,.1-.73,.07Zm-2.26-.88l2.15,.19c0-.41-.08-.72-.25-.94-.17-.22-.41-.34-.72-.37-.3-.03-.55,.05-.76,.24-.21,.19-.35,.48-.43,.88Z" style="fill: #76c1e6;"/>
          <path d="M40.13,36c0,.15-.03,.31-.11,.48-.08,.17-.21,.34-.38,.5-.17,.16-.4,.3-.67,.4-.27,.11-.58,.17-.93,.19-.74,.04-1.32-.15-1.75-.56-.43-.41-.67-.97-.7-1.69-.02-.49,.05-.93,.22-1.31,.17-.38,.43-.69,.78-.91,.35-.22,.77-.35,1.27-.37,.31-.02,.59,.02,.85,.09,.26,.08,.49,.18,.67,.32,.19,.13,.33,.28,.43,.44,.1,.16,.16,.3,.16,.44,0,.14-.04,.27-.14,.37-.1,.1-.23,.16-.38,.17-.1,0-.18-.02-.25-.06-.07-.05-.15-.13-.23-.24-.16-.21-.32-.37-.48-.47-.16-.1-.37-.15-.61-.14-.35,.02-.63,.17-.83,.45-.2,.29-.29,.67-.27,1.14,.01,.22,.05,.43,.11,.61,.06,.18,.15,.34,.26,.47,.11,.13,.24,.22,.39,.28,.15,.06,.32,.09,.49,.08,.24-.01,.44-.08,.6-.2,.16-.12,.31-.3,.43-.53,.07-.14,.14-.25,.22-.33,.08-.08,.18-.12,.3-.13,.15,0,.27,.04,.37,.15,.1,.11,.16,.22,.16,.35Z" style="fill: #76c1e6;"/>
          <path d="M41.62,31.34l.33,1.74c.12-.2,.24-.36,.36-.49,.12-.13,.27-.23,.43-.31,.16-.08,.34-.14,.54-.18,.3-.06,.57-.04,.83,.04,.25,.08,.47,.23,.65,.45,.11,.12,.19,.27,.26,.44,.06,.17,.11,.36,.16,.59l.42,2.24c.04,.23,.02,.42-.06,.56-.08,.14-.22,.23-.39,.26-.39,.07-.62-.13-.71-.6l-.37-1.98c-.07-.37-.18-.65-.33-.83-.15-.18-.38-.24-.69-.18-.21,.04-.39,.13-.53,.28-.14,.15-.24,.34-.28,.56-.03,.19,0,.5,.08,.95l.29,1.55c.04,.23,.02,.42-.06,.56-.08,.14-.22,.23-.4,.26-.39,.07-.62-.13-.71-.6l-.96-5.08c-.04-.24-.03-.42,.05-.56,.08-.14,.21-.22,.39-.26,.19-.04,.34,0,.47,.1,.13,.1,.21,.27,.26,.5Z" style="fill: #76c1e6;"/>
        </g>
        <path d="M29.95,31.6c-2.5-.02-3.79-1.2-3.81-1.22-.2-.19-.51-.18-.7,.01-.19,.2-.18,.51,.01,.7,.04,.03,.55,.52,1.55,.93l-1.14,3.61c-.08,.25-.08,.46,0,.62,.08,.16,.21,.27,.39,.33,.18,.06,.35,.04,.5-.05,.15-.09,.27-.26,.35-.52l1.14-3.61c.39,.08,.83,.15,1.3,.17,.13,0,.26,.01,.4,.01,.27,0,.5-.22,.5-.49,0-.27-.22-.5-.49-.5Z" style="fill: #76c1e6;"/>
      </g>
    </g>
  </g>
</svg>