<?xml version="1.0" encoding="UTF-8"?>
<svg id="_圖層_2" data-name="圖層 2" xmlns="http://www.w3.org/2000/svg" viewBox="0 0 135.39 32.41">
  <g id="_圖層_1-2" data-name="圖層 1">
    <g>
      <g>
        <path d="M87.86,20.24h-6.41l.36,.4c-1.29,.67-2.81,1.19-4.58,1.58l-.3-.48c1.29-.22,2.76-.72,4.4-1.5h-2.71v-4.39h9.23v4.39Zm-5.32-8.45v.47h-2.06v.9h1.82v.47h-1.82v.89l2.15-.18v.5c-.68,.04-1.59,.12-2.7,.22-1.12,.1-2.05,.16-2.79,.17l-.15-.5c1.29-.06,2.26-.11,2.9-.16v-.93h-2.15v-.47h2.15v-.9h-2.38v-.47h5.05Zm6.24-1.09h-11.04v.73h-.59v-1.2h5.78c-.08-.31-.21-.64-.39-.98l.56-.23c.13,.24,.29,.65,.49,1.2h5.79v1.38h-.6v-.91Zm-1.52,6.46v-.84h-8.03v.84h8.03Zm0,1.31v-.84h-8.03v.84h8.03Zm0,1.31v-.84h-8.03v.84h8.03Zm1.58-7.46h-2.3v.79h2.99v.47h-2.99v1.11h1.91v-.66h.6v1.13h-5.62v-1.13h.6v.66h1.91v-1.11h-3.07v-.47h3.07v-.79h-1.91c-.22,.23-.43,.44-.63,.62l-.41-.36c.66-.59,1.14-1.15,1.45-1.69l.51,.23c-.23,.36-.4,.6-.51,.73h4.4v.47Zm.86,9.42l-.3,.48c-1.22-.37-2.83-.68-4.83-.93l.27-.48c1.62,.18,3.24,.49,4.86,.93Z" style="fill: #333c47; stroke: #333c47; stroke-miterlimit: 10; stroke-width: .5px;"/>
        <path d="M99.29,17.65l-.39,.49c-.99-1.17-1.96-2.13-2.91-2.88v6.94h-.6v-7.34c-.96,1.9-2.04,3.48-3.23,4.72l-.38-.5c.5-.51,.98-1.06,1.43-1.65,.46-.59,.93-1.31,1.43-2.16s.74-1.31,.74-1.37v-.36h-3.6v-.57h3.6v-2.41c-1.09,.2-2.07,.34-2.94,.42l-.18-.52c2.37-.21,4.4-.62,6.11-1.23l.35,.48c-.82,.28-1.73,.53-2.75,.74v2.52h3.02v.57h-3.02v1.14c1.15,.82,2.25,1.81,3.3,2.98Zm1.72,1.8h-.6V10.16h.6v9.28Zm3.35,1.69c0,.7-.4,1.05-1.21,1.05l-2.03-.02-.24-.59c1.38,0,2.17,0,2.36-.01,.2,0,.33-.09,.41-.25,.08-.16,.12-.27,.12-.35V9.19h.59v11.95Z" style="fill: #333c47; stroke: #333c47; stroke-miterlimit: 10; stroke-width: .5px;"/>
        <path d="M117.65,20.08h-6.04l.36,.43c-1.5,.74-3.12,1.32-4.87,1.74l-.32-.52c1.66-.33,3.22-.88,4.67-1.64h-2.38v-5.36h8.58v5.36Zm-6.37-6.96h-4.42v-.56h4.42v.56Zm-.33-2.75h-3.7v-.55h3.7v.55Zm6.1,5.94v-1.06h-7.38v1.06h7.38Zm0,1.61v-1.09h-7.38v1.09h7.38Zm0,1.64v-1.12h-7.38v1.12h7.38Zm2.87-5.66l-.29,.48c-1.86-.2-3.38-.81-4.55-1.85-.9,.92-2.15,1.54-3.74,1.85l-.3-.51c2.1-.37,3.5-1.21,4.2-2.54l.63,.13c-.1,.2-.24,.42-.43,.66,1.02,.92,2.51,1.51,4.48,1.78Zm-.45-3.18s-.14,.26-.42,.68c-.28,.42-.6,.8-.95,1.15l-.49-.36c.49-.48,.89-.97,1.17-1.47h-5.52c-.45,.56-.96,1.05-1.52,1.47l-.4-.42c.94-.69,1.7-1.59,2.3-2.69l.53,.24c-.14,.26-.32,.56-.54,.87h5.85v.53Zm.37,11.03l-.27,.52c-1.53-.53-3.11-.94-4.73-1.21l.26-.53c1.65,.28,3.23,.69,4.75,1.22Z" style="fill: #333c47; stroke: #333c47; stroke-miterlimit: 10; stroke-width: .5px;"/>
        <path d="M126.78,11.27h-4.9v-.55h2.16c-.13-.53-.33-1.02-.6-1.46l.62-.24c.28,.46,.51,1.03,.68,1.7h2.04v.55Zm-.43,2.16h-4.1v-.56h4.1v.56Zm0,2.22h-4.1v-.55h4.1v.55Zm-.17,6.25h-.6v-.87h-2.57v1.18h-.6v-4.88h3.77v4.56Zm-.6-1.42v-2.58h-2.57v2.58h2.57Zm9.55-1.62c-.25,2.22-.69,3.33-1.32,3.33-.36,0-.65-.41-.88-1.24-.23-.82-.34-1.81-.34-2.97v-7.83h-2.91v4.88h2.18v.56h-2.18v6.6h-.6v-6.6h-2.11v-.56h2.11v-4.88h-2v-.56h6.1v7.86c0,1.12,.07,2.05,.21,2.8,.14,.75,.29,1.12,.47,1.12,.23,0,.46-.94,.72-2.83l.54,.3Z" style="fill: #333c47; stroke: #333c47; stroke-miterlimit: 10; stroke-width: .5px;"/>
      </g>
      <g>
        <g>
          <path d="M61.21,2.32c-1.53-1.53-3.52-2.3-5.52-2.32-2,.02-4,.79-5.52,2.32-.22,.22-.22,.58,0,.8s.58,.22,.8,0c1.31-1.31,3.01-1.97,4.72-1.99,1.71,.02,3.42,.68,4.72,1.99,.22,.22,.58,.22,.8,0,.22-.22,.22-.58,0-.8Z" style="fill: #333c47; opacity: .8;"/>
          <path d="M59.69,4.07c-1.1-1.1-2.56-1.64-4.01-1.62-1.45-.02-2.9,.52-4.01,1.62-.22,.22-.22,.57,0,.78,.22,.22,.57,.22,.78,0h0c.89-.89,2.06-1.32,3.22-1.3,1.16-.02,2.34,.41,3.22,1.3h0c.22,.22,.57,.22,.78,0,.22-.22,.22-.57,0-.78Z" style="fill: #333c47; opacity: .8;"/>
          <path d="M57.96,5.65c-.63-.63-1.45-.95-2.27-.97-.82,.02-1.64,.34-2.27,.97-.22,.22-.22,.57,0,.78,.22,.22,.57,.22,.78,0,.41-.41,.95-.63,1.49-.65,.54,.02,1.07,.23,1.49,.65,.22,.22,.57,.22,.78,0s.22-.57,0-.78Z" style="fill: #333c47; opacity: .8;"/>
          <path d="M56.81,8.09c0,.62-.5,1.12-1.12,1.12s-1.12-.5-1.12-1.12,.5-1.12,1.12-1.12,1.12,.5,1.12,1.12Z" style="fill: #333c47;"/>
        </g>
        <path d="M59.09,17.26c-.09-1.27-.29-2.18-.48-3.02-.1-.45-.78-3.25-2.77-3.21-1.37,.03-2.12,1.28-2.27,1.55-.79,1.38-.96,3.07-1.08,4.92-.87-.3-1.83-.27-2.66-.24-2.67,.08-4.7,1.31-5.81,2.14,.46-1.43,1.82-5.39,3.04-10.26,.13-.5,.97-4.04,.66-5.78-.16-.89-.84-2.36-2.32-2.9-.1-.04-1.75-.52-2.92,.11-1.07,.57-2.26,1.25-3.1,4.33C38.02,2.12,35.13,.16,31.15,.13c-3.33-.03-5.64,1.46-6.32,1.87-.91,.55-1.63,1.25-2.22,2.03-.29-.4-.61-.76-.95-1.09C18.98,.38,15.2-.02,12.19,.21c-2.09,.16-6.54,.6-9.51,5.11-.66,1.01-1.49,2.87-1.95,4.6C-.6,14.9,.07,19.28,1.26,22.21c.32,.6,1.28,2.22,3.24,2.98,2.16,.83,5.14,.45,6.4-1.4,.72-1.05,.65-2.23,.57-3.37-.17-2.66-1.4-4.6-2.13-5.58,.59,.39,4.65,3.02,9.28,1.48,.27-.09,.76-.26,1.35-.54,.18,2.35,.82,4.91,2.48,6.82,3.02,3.45,7.83,3.02,8.85,2.95,1.05-.07,4.45-.31,6.79-2.77,.32,.49,.75,.95,1.34,1.36,1.45,1,5.49,1.88,8.75,1.26,1.7-.33,3.58-.89,4.9-1.76,.19,.5,.46,.96,.89,1.36,.16,.15,1.34,.86,2.69,.47,1.19-.35,1.53-1.18,1.77-1.59,.53-.91,.88-3.69,.66-6.61ZM14.33,10.63c-1.28,.74-2.77,.53-3.34-.46-.57-.99,0-2.39,1.28-3.12,1.28-.74,2.77-.53,3.34,.46s0,2.39-1.28,3.12Zm18.12,6.62c-.41,3.19-4.48,3.07-4.5,.01-.02-4.01,.16-6.62,.46-8.9,.4-3.05,4.28-3.07,4.25,.3-.05,5.28,.04,6.68-.2,8.59Z" style="fill: #333c47;"/>
        <g style="opacity: .9;">
          <path d="M16.35,2.75c1.7,.41,3.29,1.31,4.06,2.94,.33,.71,1.39,.09,1.05-.62-.89-1.9-2.81-3.03-4.79-3.5-.76-.18-1.09,.99-.32,1.18h0Z" style="fill: #333c47; opacity: .9;"/>
          <path d="M43.64,2.94c.61,.55,.88,1.31,1.03,2.1,.14,.77,1.32,.44,1.18-.32-.18-.98-.58-1.97-1.34-2.64-.58-.52-1.45,.34-.86,.86h0Z" style="fill: #333c47; opacity: .9;"/>
          <path d="M56.25,12.56c.06,.05,.11,.09,.16,.15,0,0,.03,.04,.04,.05-.05-.06-.06-.07-.03-.04,0,.01,.02,.02,.02,.03,.11,.15,.23,.29,.36,.42,.16,.16,.45,.17,.6,0,.16-.17,.17-.43,0-.6-.07-.07-.14-.14-.2-.22-.06-.07,0,0,0,0,0,0-.04-.06-.05-.07-.09-.12-.18-.23-.3-.33-.17-.14-.44-.18-.6,0-.14,.16-.18,.45,0,.6h0Z" style="fill: #333c47; opacity: .9;"/>
          <path d="M32.73,2.75c2.13,.55,3.77,2.13,4.37,4.25,.21,.75,1.39,.43,1.18-.32-.71-2.52-2.68-4.45-5.22-5.1-.76-.19-1.08,.98-.32,1.18h0Z" style="fill: #333c47; opacity: .9;"/>
        </g>
        <g>
          <g>
            <path d="M28.97,30.65l-2-.18c-.02,.23,.01,.44,.09,.63,.08,.19,.19,.33,.33,.43,.14,.1,.31,.16,.49,.18,.12,.01,.24,0,.34-.01,.1-.02,.21-.06,.31-.11,.1-.05,.19-.11,.28-.17,.09-.06,.2-.15,.34-.26,.06-.04,.13-.06,.23-.05,.1,0,.19,.05,.25,.11,.06,.06,.09,.15,.08,.25,0,.09-.05,.2-.14,.32-.08,.12-.2,.23-.36,.33-.16,.1-.35,.18-.58,.23-.23,.06-.49,.07-.77,.05-.66-.06-1.15-.29-1.48-.7-.33-.41-.47-.93-.41-1.58,.03-.3,.1-.58,.21-.83,.11-.25,.26-.46,.45-.63,.19-.17,.41-.29,.68-.37,.26-.08,.55-.1,.85-.07,.4,.04,.74,.15,1.01,.34,.27,.19,.47,.43,.59,.71,.12,.28,.17,.56,.14,.84-.02,.26-.11,.42-.27,.48-.15,.06-.37,.08-.63,.06Zm-1.95-.76l1.86,.16c0-.35-.07-.62-.21-.81-.15-.19-.36-.29-.62-.32-.26-.02-.47,.05-.65,.21-.18,.16-.3,.41-.37,.76Z" style="fill: #333c47;"/>
            <path d="M34.62,31.05c0,.13-.03,.27-.09,.42-.07,.15-.18,.29-.33,.43-.15,.14-.34,.26-.58,.35-.23,.09-.5,.15-.8,.16-.63,.03-1.14-.13-1.51-.48-.37-.35-.58-.84-.61-1.46-.02-.42,.04-.8,.19-1.13,.15-.33,.37-.59,.67-.79,.3-.19,.66-.3,1.09-.32,.27-.01,.51,.01,.74,.08,.23,.07,.42,.16,.58,.27,.16,.12,.28,.24,.37,.38,.09,.14,.14,.26,.14,.38,0,.12-.03,.23-.12,.32-.09,.09-.2,.14-.33,.14-.09,0-.16-.01-.22-.06-.06-.04-.13-.11-.2-.2-.13-.18-.27-.32-.41-.41-.14-.09-.32-.13-.53-.12-.3,.01-.54,.15-.72,.39-.17,.25-.25,.57-.23,.99,0,.19,.04,.37,.1,.53,.06,.16,.13,.29,.23,.4,.1,.11,.21,.19,.34,.24,.13,.05,.27,.08,.43,.07,.21,0,.38-.07,.52-.17,.14-.1,.26-.25,.37-.46,.06-.12,.12-.21,.19-.28,.07-.07,.16-.11,.26-.11,.13,0,.23,.04,.32,.13,.09,.09,.13,.19,.14,.3Z" style="fill: #333c47;"/>
            <path d="M35.9,27.04l.28,1.5c.1-.17,.2-.31,.31-.42,.11-.11,.23-.2,.37-.27,.14-.07,.3-.12,.47-.16,.26-.05,.49-.04,.71,.03,.22,.07,.41,.2,.56,.39,.09,.11,.17,.23,.22,.38,.05,.14,.1,.31,.13,.51l.37,1.94c.04,.2,.02,.36-.05,.49-.07,.12-.19,.2-.34,.23-.33,.06-.54-.11-.62-.52l-.32-1.71c-.06-.32-.16-.56-.29-.72-.13-.16-.33-.21-.6-.16-.18,.03-.33,.12-.46,.25-.13,.13-.21,.29-.24,.48-.03,.16,0,.43,.07,.82l.25,1.34c.04,.2,.02,.36-.05,.48-.07,.12-.19,.2-.35,.23-.33,.06-.54-.11-.62-.52l-.83-4.38c-.04-.2-.02-.37,.04-.49,.07-.12,.18-.19,.34-.22,.16-.03,.3,0,.41,.08,.11,.09,.18,.23,.22,.43Z" style="fill: #333c47;"/>
          </g>
          <path d="M25.84,27.26c-2.15-.02-3.27-1.04-3.29-1.05-.17-.16-.44-.16-.6,.01-.16,.17-.16,.44,.01,.6,.03,.03,.48,.45,1.34,.8l-.98,3.11c-.07,.22-.07,.4,0,.54,.07,.14,.18,.23,.34,.28,.16,.05,.3,.04,.43-.04,.13-.08,.23-.22,.3-.44l.98-3.12c.34,.07,.71,.13,1.12,.15,.11,0,.23,0,.35,.01,.24,0,.43-.19,.43-.42,0-.24-.19-.43-.42-.43Z" style="fill: #333c47;"/>
        </g>
      </g>
    </g>
  </g>
</svg>