<?xml version="1.0" encoding="utf-8"?>
<!-- Generator: Adobe Illustrator 27.0.0, SVG Export Plug-In . SVG Version: 6.00 Build 0)  -->
<svg version="1.1" id="_圖層_2" xmlns="http://www.w3.org/2000/svg" xmlns:xlink="http://www.w3.org/1999/xlink" x="0px" y="0px"
	 viewBox="0 0 76.3 76.3" style="enable-background:new 0 0 76.3 76.3;" xml:space="preserve">
<style type="text/css">
	.st0{fill:#323E48;}
</style>
<g id="_圖層_1-2">
	<g>
		<g>
			<path class="st0" d="M52.9,62.9H23.4c-2.7,0-4.9-2.2-4.9-4.8V18.2c0-2.7,2.2-4.9,4.9-4.9h29.6c2.7,0,4.8,2.2,4.8,4.9v39.9
				C57.8,60.8,55.6,62.9,52.9,62.9L52.9,62.9z M23.4,14.6c-2,0-3.6,1.6-3.6,3.6v39.9c0,2,1.6,3.7,3.6,3.7h29.6c2,0,3.7-1.6,3.7-3.7
				V18.2c0-2-1.6-3.6-3.7-3.6H23.4z"/>
			<g>
				<path class="st0" d="M52.9,35.5h-14c-1,0-1.7-0.8-1.7-1.7V23c0-1,0.8-1.7,1.7-1.7h14c1,0,1.7,0.8,1.7,1.7v10.8
					C54.6,34.7,53.8,35.5,52.9,35.5z M38.9,22.1c-0.5,0-0.9,0.4-0.9,0.9v10.8c0,0.5,0.4,0.9,0.9,0.9h14c0.5,0,0.9-0.4,0.9-0.9V23
					c0-0.5-0.4-0.9-0.9-0.9H38.9z"/>
				<g>
					<g>
						<path class="st0" d="M50,60H26.3c-2.5,0-4.5-2-4.5-4.5V38.7c0-1,0.8-1.8,1.8-1.8h16.1c1,0,1.8,0.8,1.8,1.8V43h-0.8v-4.3
							c0-0.5-0.4-1-1-1H23.6c-0.5,0-1,0.4-1,1v16.9c0,2,1.6,3.7,3.7,3.7H50c2,0,3.7-1.7,3.7-3.7v-9.1c0-0.5-0.4-1-1-1h-9.6v-0.8h9.6
							c1,0,1.8,0.8,1.8,1.8v9.1C54.5,58,52.5,60,50,60z"/>
						<path class="st0" d="M44.8,45.5h-2.5c-1,0-1.8-0.8-1.8-1.8v-2.3h0.8v2.3c0,0.5,0.4,1,1,1h2.5V45.5z"/>
					</g>
					<g>
						<path class="st0" d="M50.9,56.1h-7.2c-0.6,0-1-0.5-1-1v-2.7c0-0.6,0.5-1,1-1h7.2c0.6,0,1,0.5,1,1V55
							C52,55.6,51.5,56.1,50.9,56.1z M43.7,52.1c-0.2,0-0.3,0.2-0.3,0.3V55c0,0.2,0.2,0.3,0.3,0.3h7.2c0.2,0,0.3-0.2,0.3-0.3v-2.7
							c0-0.2-0.2-0.3-0.3-0.3H43.7z"/>
						<polygon class="st0" points="47.7,54.6 46.9,54.6 44.6,53.5 43,53.5 43,52.8 44.9,52.8 47.1,53.9 47.5,53.9 49.4,52.8 
							51.6,52.8 51.6,53.5 49.6,53.5 						"/>
					</g>
					<path class="st0" d="M37.8,56.1H24.9c-0.8,0-1.4-0.6-1.4-1.4V41.5c0-0.8,0.6-1.4,1.4-1.4h12.9c0.8,0,1.4,0.6,1.4,1.4v13.2
						C39.2,55.5,38.6,56.1,37.8,56.1z M24.9,40.9c-0.3,0-0.6,0.3-0.6,0.6v13.2c0,0.3,0.3,0.6,0.6,0.6h12.9c0.3,0,0.6-0.3,0.6-0.6
						V41.5c0-0.3-0.3-0.6-0.6-0.6H24.9z"/>
				</g>
				<g>
					<path class="st0" d="M33.8,20.1H22.9c-0.4,0-0.7-0.3-0.7-0.7v-2.6c0-0.4,0.3-0.7,0.7-0.7h10.8c0.4,0,0.7,0.3,0.7,0.7v2.6
						C34.4,19.8,34.1,20.1,33.8,20.1z M23.1,19.3h10.6V17H23.1V19.3z"/>
					<path class="st0" d="M33.3,29.1h-9.9c-0.8,0-1.4-0.6-1.4-1.4v-4.9c0-0.8,0.6-1.4,1.4-1.4h9.9c0.8,0,1.4,0.6,1.4,1.4v4.9
						C34.7,28.4,34.1,29.1,33.3,29.1z M23.4,22.1c-0.4,0-0.6,0.3-0.6,0.6v4.9c0,0.4,0.3,0.6,0.6,0.6h9.9c0.3,0,0.6-0.3,0.6-0.6v-4.9
						c0-0.4-0.3-0.6-0.6-0.6H23.4z"/>
					<g>
						<path class="st0" d="M26.1,25.9c-0.7,0-1.3-0.6-1.3-1.3s0.6-1.3,1.3-1.3s1.3,0.6,1.3,1.3S26.8,25.9,26.1,25.9z M26.1,24.1
							c-0.3,0-0.5,0.2-0.5,0.5s0.2,0.5,0.5,0.5s0.5-0.2,0.5-0.5S26.3,24.1,26.1,24.1z"/>
						<path class="st0" d="M30.6,25.9c-0.7,0-1.3-0.6-1.3-1.3s0.6-1.3,1.3-1.3s1.3,0.6,1.3,1.3S31.3,25.9,30.6,25.9z M30.6,24.1
							c-0.3,0-0.5,0.2-0.5,0.5s0.2,0.5,0.5,0.5s0.5-0.2,0.5-0.5S30.9,24.1,30.6,24.1z"/>
					</g>
				</g>
			</g>
		</g>
	</g>
</g>
</svg>
