<?xml version="1.0" encoding="utf-8"?>
<!-- Generator: Adobe Illustrator 27.0.0, SVG Export Plug-In . SVG Version: 6.00 Build 0)  -->
<svg version="1.1" id="_圖層_2" xmlns="http://www.w3.org/2000/svg" xmlns:xlink="http://www.w3.org/1999/xlink" x="0px" y="0px"
	 viewBox="0 0 76.3 76.3" style="enable-background:new 0 0 76.3 76.3;" xml:space="preserve">
<style type="text/css">
	.st0{fill:#323E48;}
</style>
<g id="_圖層_1-2">
	<g>
		<g>
			<path class="st0" d="M60.2,52H16.1c-0.7,0-1.2-0.5-1.2-1.2V25.5c0-0.7,0.6-1.2,1.2-1.2h44.2c0.7,0,1.2,0.5,1.2,1.2v25.3
				C61.5,51.5,60.9,52,60.2,52z M16.2,50.7h44V25.6h-44V50.7z"/>
			<path class="st0" d="M46.6,47.5H29.7c-1.1,0-2-0.9-2-2V31.7c0-1.1,0.9-2,2-2h16.9c1.1,0,2,0.9,2,2v13.8
				C48.6,46.6,47.7,47.5,46.6,47.5L46.6,47.5z M29.7,31c-0.4,0-0.7,0.3-0.7,0.7v13.8c0,0.4,0.3,0.7,0.7,0.7h16.9
				c0.4,0,0.7-0.3,0.7-0.7V31.7c0-0.4-0.3-0.7-0.7-0.7C46.6,30.9,29.7,30.9,29.7,31z"/>
			<g>
				<g>
					<rect x="35.2" y="38.5" class="st0" width="2.8" height="0.8"/>
					<rect x="35.4" y="42.2" class="st0" width="2.2" height="0.8"/>
					<path class="st0" d="M32.6,40.2h-1v1.6h1c0.4,0,0.8-0.4,0.8-0.8S33,40.2,32.6,40.2L32.6,40.2z"/>
				</g>
				<path class="st0" d="M40.5,39.8c-0.5,0-0.9-0.4-0.9-0.9s0.4-0.9,0.9-0.9s0.9,0.4,0.9,0.9S41,39.8,40.5,39.8z M40.5,38.4
					c-0.2,0-0.4,0.2-0.4,0.4s0.2,0.4,0.4,0.4s0.4-0.2,0.4-0.4S40.8,38.4,40.5,38.4z"/>
			</g>
			<g>
				<rect x="15.5" y="26.6" class="st0" width="45.3" height="0.8"/>
				<rect x="15.5" y="48.9" class="st0" width="45.3" height="0.8"/>
			</g>
		</g>
	</g>
</g>
</svg>
