<?xml version="1.0" encoding="utf-8"?>
<!-- Generator: Adobe Illustrator 27.0.0, SVG Export Plug-In . SVG Version: 6.00 Build 0)  -->
<svg version="1.1" id="_圖層_2" xmlns="http://www.w3.org/2000/svg" xmlns:xlink="http://www.w3.org/1999/xlink" x="0px" y="0px"
	 viewBox="0 0 76.3 76.3" style="enable-background:new 0 0 76.3 76.3;" xml:space="preserve">
<style type="text/css">
	.st0{fill:#323E48;}
</style>
<g id="_圖層_1-2">
	<g>
		<path class="st0" d="M64.9,33.1L31.7,18.4c-1-0.4-2.1,0-2.6,1L27,24.2c0,0,0,0,0,0.1L24,30.8c-0.4,1,0,2.2,1,2.6l5.8,2.6
			c-0.1,0.3-0.1,0.6-0.1,0.9c0,0.9,0.3,1.8,0.7,2.5l-2.3,5.2c-0.1,0.3-0.4,0.5-0.7,0.5h-6.1c-0.8-1-1.9-1.6-3.2-1.7v-1.6
			c0-3.1-2.5-5.6-5.6-5.6c-0.3,0-0.6,0.3-0.6,0.6v22.8c0,0.3,0.3,0.6,0.6,0.6c3.1,0,5.6-2.5,5.6-5.6v-1.6c1.2-0.2,2.4-0.8,3.2-1.7
			h9.3c0.8,0,1.5-0.5,1.8-1.2l3.8-8.6c0.9-0.3,1.7-0.9,2.2-1.7l6.9,3c0.1,0,0.2,0,0.2,0c0.2,0,0.5-0.1,0.5-0.3l0.7-1.5
			c0.1,0.1,0.2,0.1,0.3,0.2c0.8,0.3,1.6,0.5,2.4,0.5c2.3,0,4.5-1.3,5.5-3.5c0-0.1,0.1-0.3,0.1-0.4l2.3,1c0.1,0,0.2,0,0.2,0
			c0.1,0,0.3,0,0.4-0.1L65,34c0.2-0.1,0.2-0.3,0.2-0.5S65.1,33.1,64.9,33.1L64.9,33.1z M18.1,54.5c0,2.2-1.7,4.1-3.8,4.4V37.3
			c2.1,0.3,3.8,2.1,3.8,4.4V54.5z M19.2,51.7v-7.2c1,0.2,1.8,0.7,2.4,1.5c0.5,0.6,0.7,1.4,0.7,2.2s-0.2,1.5-0.7,2.2
			C21.1,51,20.2,51.5,19.2,51.7z M32.4,49.5C32.3,49.8,32,50,31.7,50h-8.6c0.2-0.6,0.4-1.2,0.4-1.9s-0.1-1.3-0.4-1.9h5.4
			c0.8,0,1.5-0.5,1.8-1.2l2-4.6c0.9,0.8,2,1.3,3.3,1.3c0.1,0,0.2,0,0.2,0L32.4,49.5L32.4,49.5z M35.6,40.6c-2,0-3.7-1.7-3.7-3.7
			s1.7-3.7,3.7-3.7s3.7,1.7,3.7,3.7S37.7,40.6,35.6,40.6z M46.3,41.5l-6.2-2.8c0.2-0.6,0.4-1.2,0.4-1.9c0-2.7-2.2-4.9-4.9-4.9
			c-2,0-3.6,1.2-4.4,2.8l-5.7-2.5c-0.4-0.2-0.6-0.6-0.4-1l2.6-6l21.5,9.5L46.3,41.5L46.3,41.5z M55,37.8c-1.1,2.4-3.9,3.5-6.3,2.4
			c-0.1,0-0.2-0.1-0.3-0.2l2.1-4.7l4.7,2.1C55,37.5,55,37.6,55,37.8L55,37.8z M58.6,37.7L28.3,24.2l1.9-4.4c0.2-0.4,0.6-0.6,1-0.4
			l32.3,14.3L58.6,37.7L58.6,37.7z"/>
	</g>
</g>
</svg>
