<?xml version="1.0" encoding="utf-8"?>
<!-- Generator: Adobe Illustrator 27.0.0, SVG Export Plug-In . SVG Version: 6.00 Build 0)  -->
<svg version="1.1" id="_圖層_2" xmlns="http://www.w3.org/2000/svg" xmlns:xlink="http://www.w3.org/1999/xlink" x="0px" y="0px"
	 viewBox="0 0 76.3 76.3" style="enable-background:new 0 0 76.3 76.3;" xml:space="preserve">
<style type="text/css">
	.st0{fill:#323E48;}
</style>
<g id="_圖層_1-2">
	<g>
		<g id="_20591_-_Smart_door_Handle">
			<g>
				<g>
					<path class="st0" d="M39.2,60.4H22c-0.4,0-0.6-0.3-0.6-0.6V20.5c0-0.4,0.3-0.6,0.6-0.6h17.1c0.3,0,0.6,0.3,0.6,0.6V30
						c0,0.4-0.3,0.6-0.6,0.6s-0.6-0.3-0.6-0.6v-8.9H22.7v38.1h15.9V33.8c0-0.3,0.3-0.6,0.6-0.6s0.6,0.3,0.6,0.6v26
						C39.8,60.2,39.5,60.4,39.2,60.4L39.2,60.4z"/>
					<path class="st0" d="M33.8,56.6h-6.3c-0.2,0-0.4-0.1-0.5-0.2s-0.2-0.3-0.1-0.5l1-6.8c-0.7-0.7-1-1.6-1-2.6
						c0-2.1,1.7-3.8,3.8-3.8s3.8,1.7,3.8,3.8c0,1-0.4,1.9-1,2.6l1,6.8c0,0.2,0,0.4-0.1,0.5C34.1,56.6,34,56.6,33.8,56.6z M28.2,55.4
						H33l-1-6.4c0-0.2,0-0.4,0.2-0.6c0.6-0.5,0.9-1.2,0.9-1.9c0-1.4-1.1-2.5-2.5-2.5s-2.5,1.1-2.5,2.5c0,0.7,0.3,1.4,0.9,1.9
						c0.2,0.1,0.2,0.4,0.2,0.6L28.2,55.4L28.2,55.4z"/>
					<path class="st0" d="M30.6,37c-2.8,0-5.1-2.3-5.1-5.1s2.3-5.1,5.1-5.1c1.8,0,3.5,1,4.4,2.5h13c1.4,0,2.5,1.1,2.5,2.5
						s-1.1,2.5-2.5,2.5H35C34.1,36,32.4,37,30.6,37L30.6,37z M30.6,28.1c-2.1,0-3.8,1.7-3.8,3.8s1.7,3.8,3.8,3.8
						c1.5,0,2.8-0.8,3.4-2.2c0.1-0.2,0.3-0.4,0.6-0.4H48c0.7,0,1.3-0.6,1.3-1.3s-0.6-1.3-1.3-1.3H34.6c-0.2,0-0.5-0.1-0.6-0.4
						C33.4,28.9,32.1,28.1,30.6,28.1z"/>
					<path class="st0" d="M39.2,24.9H22c-0.4,0-0.6-0.3-0.6-0.6s0.3-0.6,0.6-0.6h17.1c0.3,0,0.6,0.3,0.6,0.6S39.5,24.9,39.2,24.9
						L39.2,24.9z"/>
					<path class="st0" d="M39.2,40.8H22c-0.4,0-0.6-0.3-0.6-0.6s0.3-0.6,0.6-0.6h17.1c0.3,0,0.6,0.3,0.6,0.6S39.5,40.8,39.2,40.8
						L39.2,40.8z"/>
					<g>
						<path class="st0" d="M49.3,44.5c-0.3,0-0.6-0.3-0.6-0.6s0.3-0.6,0.6-0.6c4.9,0,8.9-4,8.9-8.9c0-0.3,0.3-0.6,0.6-0.6
							s0.6,0.3,0.6,0.6C59.5,40,54.9,44.5,49.3,44.5L49.3,44.5z"/>
						<path class="st0" d="M49.3,39.4c-0.3,0-0.6-0.3-0.6-0.6s0.3-0.6,0.6-0.6c2.1,0,3.8-1.7,3.8-3.8c0-0.3,0.3-0.6,0.6-0.6
							s0.6,0.3,0.6,0.6C54.4,37.2,52.1,39.4,49.3,39.4L49.3,39.4z"/>
						<path class="st0" d="M49.3,42c-0.3,0-0.6-0.3-0.6-0.6s0.3-0.6,0.6-0.6c3.5,0,6.3-2.8,6.3-6.3c0-0.3,0.3-0.6,0.6-0.6
							s0.6,0.3,0.6,0.6C56.9,38.6,53.5,42,49.3,42L49.3,42z"/>
					</g>
				</g>
				<path class="st0" d="M30.6,47.9c-0.4,0-0.6-0.3-0.6-0.6v-1.4c0-0.3,0.3-0.6,0.6-0.6s0.6,0.3,0.6,0.6v1.4
					C31.2,47.6,31,47.9,30.6,47.9z"/>
			</g>
		</g>
	</g>
</g>
</svg>
