<?xml version="1.0" encoding="utf-8"?>
<!-- Generator: Adobe Illustrator 27.0.0, SVG Export Plug-In . SVG Version: 6.00 Build 0)  -->
<svg version="1.1" id="_圖層_2" xmlns="http://www.w3.org/2000/svg" xmlns:xlink="http://www.w3.org/1999/xlink" x="0px" y="0px"
	 viewBox="0 0 76.3 76.3" style="enable-background:new 0 0 76.3 76.3;" xml:space="preserve">
<style type="text/css">
	.st0{fill:none;stroke:#323B46;stroke-linecap:round;stroke-linejoin:round;}
	.st1{fill:none;stroke:#323B46;stroke-width:0.7;stroke-linecap:round;stroke-linejoin:round;}
</style>
<g id="_圖層_1-2">
	<g>
		<g>
			<line class="st0" x1="20.3" y1="59.8" x2="20.3" y2="14.6"/>
			<line class="st1" x1="23.4" y1="35.7" x2="23.4" y2="42.8"/>
			<line class="st1" x1="24.4" y1="36.4" x2="24.4" y2="42.1"/>
			<line class="st1" x1="25.8" y1="54.2" x2="25.8" y2="48.6"/>
			<line class="st1" x1="28" y1="42.1" x2="28" y2="36.4"/>
			<line class="st1" x1="28.4" y1="16.5" x2="28.4" y2="26.1"/>
			<line class="st0" x1="22.2" y1="61.7" x2="20.3" y2="59.8"/>
			<line class="st0" x1="22.2" y1="58.6" x2="20.3" y2="56.6"/>
			<line class="st1" x1="28.8" y1="26.3" x2="28.8" y2="26.4"/>
			<line class="st1" x1="29.1" y1="42.8" x2="29.1" y2="35.7"/>
			<line class="st1" x1="29.9" y1="25.2" x2="29.9" y2="17.3"/>
			<line class="st1" x1="32.7" y1="54.2" x2="32.7" y2="48.6"/>
			<line class="st1" x1="33" y1="43.9" x2="33" y2="35.7"/>
			<line class="st0" x1="54.1" y1="61.7" x2="22.2" y2="61.7"/>
			<line class="st0" x1="22.2" y1="58.6" x2="54.1" y2="58.6"/>
			<line class="st1" x1="43.3" y1="43.9" x2="43.3" y2="35.7"/>
			<line class="st1" x1="25.8" y1="54.2" x2="32.7" y2="54.2"/>
			<line class="st1" x1="46.4" y1="17.3" x2="46.4" y2="25.2"/>
			<line class="st1" x1="46.5" y1="41.4" x2="46.5" y2="43.7"/>
			<line class="st1" x1="47.5" y1="26.3" x2="47.5" y2="26.4"/>
			<line class="st1" x1="47.9" y1="26.1" x2="47.9" y2="16.5"/>
			<line class="st1" x1="25.8" y1="48.6" x2="32.7" y2="48.6"/>
			<line class="st1" x1="53.4" y1="43.7" x2="53.4" y2="41.4"/>
			<line class="st0" x1="56" y1="56.6" x2="54.1" y2="58.6"/>
			<line class="st0" x1="54.1" y1="61.7" x2="56" y2="59.8"/>
			<line class="st1" x1="53" y1="43.9" x2="53.2" y2="43.9"/>
			<line class="st1" x1="53" y1="43.9" x2="46.8" y2="43.9"/>
			<line class="st1" x1="33" y1="43.9" x2="43.3" y2="43.9"/>
			<line class="st1" x1="23.7" y1="43.2" x2="28.7" y2="43.2"/>
			<line class="st1" x1="46.6" y1="43.9" x2="46.8" y2="43.9"/>
			<line class="st0" x1="56" y1="59.8" x2="56" y2="14.6"/>
			<line class="st1" x1="24.4" y1="42.1" x2="28" y2="42.1"/>
			<line class="st1" x1="43.3" y1="42" x2="33" y2="42"/>
			<line class="st1" x1="46.6" y1="41.2" x2="53.2" y2="41.2"/>
			<line class="st1" x1="28" y1="36.4" x2="24.4" y2="36.4"/>
			<line class="st1" x1="43" y1="35.3" x2="33.3" y2="35.3"/>
			<line class="st1" x1="28.7" y1="35.3" x2="23.7" y2="35.3"/>
			<line class="st0" x1="20.3" y1="31.4" x2="56" y2="31.4"/>
			<line class="st0" x1="20.3" y1="29" x2="56" y2="29"/>
			<line class="st1" x1="28.8" y1="26.4" x2="47.5" y2="26.4"/>
			<line class="st1" x1="28.8" y1="26.3" x2="47.5" y2="26.3"/>
			<line class="st1" x1="46.4" y1="25.2" x2="29.9" y2="25.2"/>
			<line class="st1" x1="29.9" y1="17.4" x2="46.4" y2="17.4"/>
			<line class="st1" x1="29.9" y1="17.3" x2="46.4" y2="17.3"/>
			<line class="st1" x1="47.5" y1="16.2" x2="28.8" y2="16.2"/>
			<line class="st0" x1="56" y1="14.6" x2="20.3" y2="14.6"/>
			<path class="st1" d="M33.3,35.3c-0.2,0-0.3,0.2-0.3,0.3"/>
			<path class="st1" d="M23.7,35.3c-0.2,0-0.4,0.2-0.4,0.3"/>
			<path class="st1" d="M23.4,42.8c0,0.2,0.2,0.3,0.4,0.3"/>
			<path class="st1" d="M28.7,43.1c0.2,0,0.4-0.2,0.4-0.3"/>
			<path class="st1" d="M29.1,35.6c0-0.2-0.2-0.3-0.4-0.3"/>
			<path class="st1" d="M43.3,35.6c0-0.2-0.2-0.3-0.3-0.3"/>
			<polyline class="st1" points="28.8,26.4 28.7,26.3 28.6,26.3 28.5,26.2 28.4,26.1 28.4,26.1 			"/>
			<polyline class="st1" points="47.9,26.1 47.8,26.1 47.8,26.2 47.7,26.3 47.6,26.3 47.5,26.4 			"/>
			<polyline class="st1" points="28.8,16.2 28.7,16.3 28.6,16.3 28.5,16.4 28.4,16.5 28.4,16.5 			"/>
			<polyline class="st1" points="47.9,16.5 47.8,16.5 47.8,16.4 47.7,16.3 47.6,16.3 47.5,16.2 			"/>
			<polyline class="st1" points="47.5,26.3 47.6,26.3 47.7,26.2 47.8,26.1 47.8,26.1 47.9,26 			"/>
			<polyline class="st1" points="28.4,26 28.4,26.1 28.5,26.1 28.6,26.2 28.7,26.3 28.8,26.3 			"/>
			<polyline class="st1" points="46.6,41.2 46.6,41.2 46.5,41.3 46.5,41.3 46.5,41.4 			"/>
			<polyline class="st1" points="46.5,43.7 46.5,43.8 46.5,43.8 46.6,43.9 46.6,43.9 			"/>
			<polyline class="st1" points="53.2,43.9 53.3,43.9 53.3,43.8 53.4,43.8 53.4,43.7 			"/>
			<polyline class="st1" points="53.4,41.4 53.4,41.3 53.3,41.3 53.3,41.2 53.2,41.2 			"/>
			<path class="st1" d="M24.4,46.1h10c0.5,0,0.8,0.4,0.8,0.8v9.4c0,0.5-0.4,0.8-0.8,0.8h-10c-0.5,0-0.9-0.4-0.9-0.8V47
				C23.6,46.5,23.9,46.1,24.4,46.1z"/>
		</g>
	</g>
</g>
</svg>
