<?xml version="1.0" encoding="utf-8"?>
<!-- Generator: Adobe Illustrator 27.0.0, SVG Export Plug-In . SVG Version: 6.00 Build 0)  -->
<svg version="1.1" id="_圖層_2" xmlns="http://www.w3.org/2000/svg" xmlns:xlink="http://www.w3.org/1999/xlink" x="0px" y="0px"
	 viewBox="0 0 76.3 76.3" style="enable-background:new 0 0 76.3 76.3;" xml:space="preserve">
<style type="text/css">
	.st0{fill:#323B46;}
</style>
<g id="_圖層_1-2">
	<g>
		<g>
			<path class="st0" d="M24,24.2c-0.3,0-0.5,0.2-0.5,0.5v0.8c0,0.3,0.2,0.5,0.5,0.5s0.5-0.2,0.5-0.5v-0.8
				C24.5,24.4,24.3,24.2,24,24.2z"/>
			<path class="st0" d="M25.5,24.2c-0.3,0-0.5,0.2-0.5,0.5v0.8c0,0.3,0.2,0.5,0.5,0.5s0.5-0.2,0.5-0.5v-0.8
				C26,24.4,25.8,24.2,25.5,24.2z"/>
			<path class="st0" d="M27.4,33.6c0.3,0,0.5-0.2,0.5-0.5s-0.2-0.5-0.5-0.5h-5.2c-0.3,0-0.5,0.2-0.5,0.5s0.2,0.5,0.5,0.5H27.4z"/>
			<path class="st0" d="M26.8,35.6h-4.1c-0.3,0-0.5,0.2-0.5,0.5s0.2,0.5,0.5,0.5h4.1c0.3,0,0.5-0.2,0.5-0.5S27.1,35.6,26.8,35.6z"/>
			<path class="st0" d="M26.2,38.5h-2.9c-0.3,0-0.5,0.2-0.5,0.5s0.2,0.5,0.5,0.5h2.9c0.3,0,0.5-0.2,0.5-0.5S26.5,38.5,26.2,38.5z"/>
			<path class="st0" d="M52.3,56.6c0.3,0,0.5-0.2,0.5-0.5v-0.8c0-0.3-0.2-0.5-0.5-0.5s-0.5,0.2-0.5,0.5v0.8
				C51.8,56.4,52,56.6,52.3,56.6z"/>
			<path class="st0" d="M50.8,56.6c0.3,0,0.5-0.2,0.5-0.5v-0.8c0-0.3-0.2-0.5-0.5-0.5s-0.5,0.2-0.5,0.5v0.8
				C50.3,56.4,50.5,56.6,50.8,56.6z"/>
			<path class="st0" d="M57.8,44.6l-2.6-5.9c-0.1-0.2-0.2-0.3-0.4-0.3h-0.3v-2.5c0-0.3-0.2-0.5-0.5-0.5h-2V23.9
				c0-1.9-0.8-3.7-2.1-5.1c-1.3-1.4-3.2-2.1-5.1-2.1c-4,0-7.2,3.2-7.2,7.2v28.5l0,0c0,3.4-2.8,6.2-6.2,6.2s-6.2-2.8-6.2-6.2v-6.9h2
				c0.3,0,0.5-0.2,0.5-0.5v-2.5H28c0.2,0,0.4-0.1,0.5-0.3l2.6-5.9c0-0.1,0-0.1,0-0.2v-5.9c0-0.3-0.2-0.5-0.5-0.5h-1V23
				c0-0.3-0.2-0.5-0.5-0.5h-2.1l0,0l0,0h-4.6l0,0l0,0h-2.1c-0.3,0-0.5,0.2-0.5,0.5v6.6h-1c-0.3,0-0.5,0.2-0.5,0.5V36
				c0,0.1,0,0.1,0,0.2l2.6,5.9c0.1,0.2,0.2,0.3,0.4,0.3h0.3v2.5c0,0.3,0.2,0.5,0.5,0.5h2v6.9c0,4,3.2,7.2,7.2,7.2s7.2-3.2,7.2-7.2
				V23.9c0,0,0,0,0,0c0-3.4,2.8-6.2,6.2-6.2c1.7,0,3.2,0.6,4.4,1.8c1.2,1.2,1.8,2.7,1.8,4.4v11.5h-2c-0.3,0-0.5,0.2-0.5,0.5v2.5
				h-0.3c-0.2,0-0.4,0.1-0.4,0.3l-2.6,5.9c0,0.1,0,0.1,0,0.2v5.9c0,0.3,0.2,0.5,0.5,0.5h1v6.6c0,0.3,0.2,0.5,0.5,0.5H56
				c0.3,0,0.5-0.2,0.5-0.5v-6.6h1c0.3,0,0.5-0.2,0.5-0.5v-5.9C57.9,44.7,57.9,44.7,57.8,44.6L57.8,44.6z M28.7,29.6h-1.1v-6.1h1.1
				V29.6z M22.9,29.6v-6.1h3.7v6.1H22.9z M20.8,23.5H22v6.1h-1.1V23.5z M19.4,36v-5.4h0.9c0,0,0,0,0,0s0,0,0,0h2.1l0,0l0,0h4.6l0,0
				l0,0h2.1l0,0l0,0h1V36l-2.5,5.6h-5.8L19.4,36L19.4,36z M22.8,42.5h3.9v2h-3.9V42.5z M49.6,36.4h1.9c0,0,0,0,0,0s0,0,0,0h1.9v2
				h-3.9L49.6,36.4L49.6,36.4z M47.6,51.2h1.2v6.1h-1.2V51.2z M53.4,51.2v6.1h-3.7v-6.1H53.4z M55.5,57.4h-1.2v-6.1h1.2V57.4z
				 M56.9,50.3H46.1v-5.3l2.5-5.6h5.8l2.5,5.6L56.9,50.3L56.9,50.3z"/>
			<path class="st0" d="M48.9,47.3c-0.3,0-0.5,0.2-0.5,0.5s0.2,0.5,0.5,0.5h5.2c0.3,0,0.5-0.2,0.5-0.5s-0.2-0.5-0.5-0.5H48.9z"/>
			<path class="st0" d="M49.5,45.3h4.1c0.3,0,0.5-0.2,0.5-0.5s-0.2-0.5-0.5-0.5h-4.1c-0.3,0-0.5,0.2-0.5,0.5S49.2,45.3,49.5,45.3z"
				/>
			<path class="st0" d="M50.1,42.3H53c0.3,0,0.5-0.2,0.5-0.5s-0.2-0.5-0.5-0.5h-2.9c-0.3,0-0.5,0.2-0.5,0.5S49.8,42.3,50.1,42.3z"/>
		</g>
	</g>
</g>
</svg>
